<?xml version="1.0" encoding="utf-8"?>
<!-- Generator: Adobe Illustrator 27.5.0, SVG Export Plug-In . SVG Version: 6.00 Build 0)  -->
<svg version="1.1" xmlns="http://www.w3.org/2000/svg" xmlns:xlink="http://www.w3.org/1999/xlink" x="0px" y="0px"
	 viewBox="0 0 500 500" style="enable-background:new 0 0 500 500;" xml:space="preserve">
<g id="BACKGROUND">
	<g>
		<rect style="fill:#F9F0E8;" width="500" height="500"/>
		<g>
			<path style="opacity:0.39;fill:#FFFFFF;" d="M203.36,497.055c-13-14-23-29-30-46c-9-22-4-51-25-65c-31-19-69-10-104-13
				C21.691,370.73,8.156,356.234,0,337.635V500h206.375C205.351,499.058,204.342,498.086,203.36,497.055z"/>
			<path style="opacity:0.39;fill:#FFFFFF;" d="M411.36,420.055c-7,23-8,50-26,65c-7.271,6.181-15.47,10.904-24.159,14.945H500
				V384.077c-19.695,11.391-42.829,12.515-66.64,14.978C423.36,401.055,415.36,410.055,411.36,420.055z"/>
			<path style="opacity:0.39;fill:#FFFFFF;" d="M100.36,11.055c1.477-4.044,3.222-7.718,5.202-11.055H0v115.05
				c17.017-8.658,38.058-5.344,55.36-13.995C89.36,83.055,89.36,43.055,100.36,11.055z"/>
			<path style="opacity:0.39;fill:#FFFFFF;" d="M378.596,0c13.619,5.824,26.505,12.335,36.764,22.055c12,12,20,37,38,38
				c15.261,1.526,31.103-5.09,46.64-4.317V0H378.596z"/>
		</g>
		<g>
			<polygon style="fill:#FFCA9C;" points="248.964,40.78 252.357,44.174 248.964,47.567 250.975,49.578 254.368,46.185 
				257.762,49.578 259.773,47.567 256.379,44.174 259.773,40.78 257.762,38.77 254.368,42.163 250.975,38.77 			"/>
			<polygon style="fill:#FFCA9C;" points="269.527,253.418 272.92,256.812 269.527,260.205 271.538,262.216 274.931,258.823 
				278.325,262.216 280.336,260.205 276.942,256.812 280.336,253.418 278.325,251.407 274.931,254.801 271.538,251.407 			"/>
			<g>
				<path style="fill:#FFCA9C;" d="M422.317,283.21c0.491,0,0.889,0.398,0.889,0.889c0,0.491-0.398,0.889-0.889,0.889
					c-0.491,0-0.889-0.398-0.889-0.889C421.427,283.608,421.826,283.21,422.317,283.21z"/>
				<path style="fill:#FFCA9C;" d="M431.039,283.21c0.491,0,0.889,0.398,0.889,0.889c0,0.491-0.398,0.889-0.889,0.889
					s-0.889-0.398-0.889-0.889C430.15,283.608,430.548,283.21,431.039,283.21z"/>
				<circle style="fill:#FFCA9C;" cx="431.039" cy="272.751" r="0.889"/>
				<path style="fill:#FFCA9C;" d="M439.762,283.21c0.491,0,0.889,0.398,0.889,0.889c0,0.491-0.398,0.889-0.889,0.889
					c-0.491,0-0.889-0.398-0.889-0.889C438.873,283.608,439.271,283.21,439.762,283.21z"/>
				<circle style="fill:#FFCA9C;" cx="439.762" cy="272.751" r="0.889"/>
				<circle style="fill:#FFCA9C;" cx="439.762" cy="261.403" r="0.889"/>
				<path style="fill:#FFCA9C;" d="M448.485,283.21c0.491,0,0.889,0.398,0.889,0.889c0,0.491-0.398,0.889-0.889,0.889
					c-0.491,0-0.889-0.398-0.889-0.889C447.596,283.608,447.994,283.21,448.485,283.21z"/>
				<circle style="fill:#FFCA9C;" cx="448.485" cy="272.751" r="0.889"/>
				<circle style="fill:#FFCA9C;" cx="448.485" cy="261.403" r="0.889"/>
				<circle style="fill:#FFCA9C;" cx="448.485" cy="250.055" r="0.889"/>
				<path style="fill:#FFCA9C;" d="M457.208,283.21c0.491,0,0.889,0.398,0.889,0.889c0,0.491-0.398,0.889-0.889,0.889
					c-0.491,0-0.889-0.398-0.889-0.889C456.319,283.608,456.717,283.21,457.208,283.21z"/>
				<circle style="fill:#FFCA9C;" cx="457.208" cy="272.751" r="0.889"/>
				<circle style="fill:#FFCA9C;" cx="457.208" cy="261.403" r="0.889"/>
				<circle style="fill:#FFCA9C;" cx="457.208" cy="250.055" r="0.889"/>
				<circle style="fill:#FFCA9C;" cx="457.208" cy="238.707" r="0.889"/>
				<path style="fill:#FFCA9C;" d="M465.931,283.21c0.491,0,0.889,0.398,0.889,0.889c0,0.491-0.398,0.889-0.889,0.889
					c-0.491,0-0.889-0.398-0.889-0.889C465.041,283.608,465.44,283.21,465.931,283.21z"/>
				<circle style="fill:#FFCA9C;" cx="465.931" cy="272.751" r="0.889"/>
				<circle style="fill:#FFCA9C;" cx="465.931" cy="261.403" r="0.889"/>
				<circle style="fill:#FFCA9C;" cx="465.931" cy="250.055" r="0.889"/>
				<circle style="fill:#FFCA9C;" cx="465.931" cy="238.707" r="0.889"/>
				<path style="fill:#FFCA9C;" d="M465.931,226.469c0.491,0,0.889,0.398,0.889,0.889c0,0.491-0.398,0.889-0.889,0.889
					c-0.491,0-0.889-0.398-0.889-0.889C465.041,226.867,465.44,226.469,465.931,226.469z"/>
			</g>
			<g>
				
					<ellipse transform="matrix(0.2311 -0.9729 0.9729 0.2311 -146.1153 446.2001)" style="fill:#FFCA9C;" cx="209.233" cy="315.54" rx="13.279" ry="13.279"/>
				<g>
					<path style="fill:#FFCA9C;" d="M216.887,296.115c7.117,0,12.907,5.79,12.907,12.906s-5.79,12.907-12.907,12.907
						c-7.117,0-12.906-5.79-12.906-12.907S209.77,296.115,216.887,296.115 M216.887,295.742c-7.334,0-13.279,5.945-13.279,13.279
						c0,7.334,5.945,13.279,13.279,13.279c7.334,0,13.28-5.945,13.28-13.279C230.167,301.688,224.221,295.742,216.887,295.742
						L216.887,295.742z"/>
				</g>
			</g>
			<g>
				<path style="fill:#FFCA9C;" d="M79.878,47.397c-11.255,0-20.379,9.124-20.379,20.379h40.758
					C100.257,56.521,91.133,47.397,79.878,47.397z"/>
				<path style="fill:#FFCA9C;" d="M88.844,42.067c10.713,0,19.464,8.556,19.778,19.194H69.066
					C69.379,50.624,78.131,42.067,88.844,42.067 M88.844,41.475c-11.255,0-20.379,9.124-20.379,20.379h40.758
					C109.222,50.599,100.099,41.475,88.844,41.475L88.844,41.475z"/>
			</g>
		</g>
	</g>
</g>
<g id="OBJECTS">
	<g>
		<g>
			<path style="fill:#263238;" d="M463.994,481.437H36.007c-1.657,0-3-1.343-3-3s1.343-3,3-3h427.987c1.657,0,3,1.343,3,3
				S465.651,481.437,463.994,481.437z"/>
		</g>
		<g>
			<g>
				<g>
					<g>
						<g>
							<g>
								<path style="fill:#B96E2B;" d="M252.992,156.99c-0.571-0.087-1.15,0.044-1.709,0.189c-4.151,1.078-8.281,3.031-11.593,5.785
									c-3.475,2.89-0.049,6.425,3.317,3.847c0.974-0.746,1.717-1.746,2.571-2.627c1.655-1.709,3.756-2.982,6.036-3.66
									c0.667-0.198,1.366-0.354,1.935-0.755c0.569-0.401,0.977-1.132,0.76-1.794C254.128,157.427,253.563,157.077,252.992,156.99z
									"/>
								<path style="fill:#B96E2B;" d="M255.675,160.211c-0.571-0.087-1.15,0.044-1.709,0.189
									c-4.151,1.078-8.281,3.031-11.593,5.785c-3.475,2.89-0.049,6.425,3.317,3.847c0.974-0.746,1.717-1.746,2.571-2.627
									c1.655-1.709,3.756-2.982,6.036-3.66c0.667-0.198,1.366-0.354,1.935-0.755c0.569-0.401,0.978-1.132,0.76-1.793
									C256.812,160.648,256.246,160.298,255.675,160.211z"/>
								<path style="fill:#B96E2B;" d="M255.599,164.293c-0.571-0.086-1.15,0.044-1.709,0.189
									c-4.151,1.078-8.281,3.031-11.593,5.785c-3.475,2.89-0.048,6.425,3.317,3.847c0.974-0.746,1.717-1.746,2.571-2.627
									c1.655-1.709,3.756-2.982,6.036-3.66c0.667-0.198,1.366-0.354,1.935-0.755c0.569-0.401,0.978-1.132,0.76-1.793
									C256.736,164.73,256.17,164.379,255.599,164.293z"/>
								<path style="fill:#B96E2B;" d="M252.568,168.83c0.456-0.118,0.929-0.225,1.395-0.154c0.466,0.071,0.928,0.357,1.075,0.804
									c0.178,0.54-0.156,1.137-0.621,1.464c-0.464,0.327-1.035,0.455-1.58,0.617c-1.862,0.553-3.577,1.593-4.928,2.988
									c-0.697,0.719-1.304,1.535-2.099,2.145c-2.748,2.105-5.545-0.781-2.708-3.14C245.808,171.304,249.179,169.71,252.568,168.83
									z"/>
								<path style="fill:#B96E2B;" d="M239.284,163.338c-1.749,2.001-2.629,3.284-3.766,5.686
									c-1.137,2.402-1.603,5.239-0.684,7.732c0.919,2.494,3.447,4.472,6.092,4.218c1.576-0.151,3.006-1.039,4.125-2.159
									c2.317-2.318,3.479-5.74,3.051-8.99c-0.428-3.25-2.434-6.255-5.272-7.895L239.284,163.338z"/>
							</g>
						</g>
						<g>
							<path style="fill:#F5A42E;" d="M137.872,157.374c-0.613,6.115,1.666,12.216,5.074,17.101
								c3.408,4.886,7.885,8.747,12.311,12.554c11.583,9.961,23.166,19.922,34.749,29.883c2.07,1.78,4.229,3.608,6.806,4.266
								c3.942,1.007,8.003-0.908,11.585-3.002c11.036-6.453,20.981-15.107,29.185-25.394c2.514-3.152,5.007-6.99,4.419-11.087
								c-0.529-3.691-3.584-6.51-6.925-7.421c-3.341-0.911-6.895-0.223-10.187,0.926c-9.002,3.141-16.691,9.547-24.177,15.834
								c-10.633-8.409-22.471-17.691-31.971-27.56c-4.262-4.427-8.482-9.271-14.042-11.45
								C149.139,149.847,138.512,150.985,137.872,157.374z"/>
							<path style="fill:#F5A42E;" d="M240.02,184.587c0.607-0.929,1.63-1.482,2.559-2.089c0.929-0.608,1.86-1.399,2.076-2.488
								c0.132-0.665-0.026-1.353-0.243-1.996c-1.379-4.086-5.386-7.145-9.691-7.398c-1.945,1.842-3.317,3.757-4.362,6.224
								L240.02,184.587z"/>
						</g>
					</g>
					<path style="fill:#A66F1F;" d="M199.779,191.013c-2.706,4.249-3.559,9.543-2.278,14.421c0.147,0.56,1.04,0.405,0.892-0.161
						c-1.219-4.643-0.457-9.68,2.124-13.734C200.829,191.048,200.093,190.521,199.779,191.013z"/>
					<path style="fill:#A66F1F;" d="M198.869,197.07c-0.577,1.777-0.559,3.667,0.023,5.439c0.076,0.232,0.4,0.313,0.602,0.218
						c0.243-0.114,0.294-0.369,0.218-0.602c-0.502-1.527-0.49-3.21,0.005-4.736C199.897,196.835,199.049,196.515,198.869,197.07z"/>
					<path style="fill:#A66F1F;" d="M231.96,173.393c-0.578,0.074-0.417,0.966,0.161,0.892c2.218-0.286,4.501,0.35,6.232,1.771
						c1.613,1.325,2.628,3.272,2.885,5.333c0.072,0.578,0.963,0.417,0.891-0.161c-0.286-2.299-1.459-4.439-3.25-5.91
						C236.961,173.743,234.409,173.077,231.96,173.393z"/>
				</g>
				<g>
					<g>
						<g>
							<g>
								<path style="fill:#386CA6;" d="M164.783,267.201c-32.749,3.923-32.268,24.328-32.268,24.328l18.363,78.81l14.988,71.727
									h17.258c1.53-26.716,3.117-58.575,2.475-72.397C182.898,311.586,164.783,267.201,164.783,267.201z"/>
								<path style="fill:#488BD6;" d="M165.865,442.066l1.099,8.616h15.62c0.197-2.883,0.376-5.755,0.539-8.616H165.865z"/>
								<path style="fill:#B96E2B;" d="M168.254,450.682c0.005,2.32,0.019,4.577,0.046,6.743h12.361l0.69-6.743H168.254z"/>
								<g>
									<path style="fill:#F5A42E;" d="M167.473,456.416l14.468-0.433c4.032,4.568,28.31,10.316,29.716,16.462h-47.526
										C164.659,466.975,165.736,461.594,167.473,456.416z"/>
									<path style="fill:#A66F1F;" d="M211.656,472.445c0.135,0.589,0.273,1.176,0.381,1.772c0.168,0.934-0.473,1.809-1.347,1.809
										h-45.353c-0.798,0-1.439-0.739-1.376-1.605c0.048-0.66,0.107-1.318,0.17-1.976H211.656z"/>
								</g>
							</g>
							<g>
								<path style="fill:#508DBA;" d="M141.315,290.359c0,0,14.568-10.164,16.274-19.057l-54.685,2.117
									c0,0-12.507,67.149-8.887,168.646h17.179L141.315,290.359z"/>
								<path style="fill:#62ACE3;" d="M94.017,442.066c-0.025,2.964-0.034,5.844-0.024,8.616h15.492l1.711-8.616H94.017z"/>
								<path style="fill:#B96E2B;" d="M95.277,450.682c0.005,2.32,0.019,4.577,0.046,6.743h12.361l0.69-6.743H95.277z"/>
								<g>
									<path style="fill:#F5A42E;" d="M108.384,456.416l-14.468-0.433c-4.032,4.568-6.906,10.316-8.312,16.462h26.122
										C111.198,466.975,110.121,461.594,108.384,456.416z"/>
									<path style="fill:#A66F1F;" d="M85.604,472.445c-0.135,0.589-0.273,1.176-0.38,1.772c-0.168,0.934,0.473,1.809,1.347,1.809
										h23.949c0.798,0,1.439-0.739,1.376-1.605c-0.048-0.66-0.107-1.318-0.171-1.976H85.604z"/>
								</g>
							</g>
							<path style="fill:#386CA6;" d="M152.58,280.238c2.892-3.162,5.423-6.769,6.079-10.192l-55.264-2.846
								c0,0-0.449,6.469-0.66,9.157C119.211,280.533,136.065,282.093,152.58,280.238z"/>
						</g>
						<path style="fill:#386CA6;" d="M106.742,382.812c-1.794-3.357-3.67-6.627-5.156-10.167c-1.502-3.579-2.576-7.3-3.662-11.044
							c-0.133-0.458-0.731-0.267-0.653,0.196c0.651,3.888,1.944,7.672,3.411,11.275c1.464,3.595,3.163,7.193,5.424,10.276
							C106.397,383.745,106.968,383.235,106.742,382.812z"/>
					</g>
					<path style="fill:#3B1411;" d="M123.021,137.548c-0.209-3.514-0.419-7.034-0.955-10.513c-0.528-3.424-1.371-6.799-2.515-10.069
						c-1.152,0.333-2.325-1.1-2.974-2.109c-0.649-1.009-0.55-2.439,0.231-3.35c0.357-0.416,0.833-0.725,1.156-1.169
						c0.987-1.358,0.177-3.24-0.617-4.719c-0.794-1.479-1.516-3.431-0.419-4.701c1.403-1.625,4.051-0.386,6.173-0.712
						c2.459-0.377,3.942-2.818,5.366-4.859c1.019-1.461,2.231-2.877,3.861-3.596c1.63-0.719,3.763-0.553,4.92,0.801
						c0.628,0.735,0.917,1.736,1.635,2.385c1.418,1.283,3.627,0.607,5.486,0.159c1.859-0.449,4.451-0.13,4.79,1.752
						c0.216,1.198-0.692,2.335-0.688,3.553c0.005,1.897,2.059,3.03,3.821,3.733c1.762,0.703,3.826,1.787,3.895,3.682
						c0.082,2.26-2.842,3.843-2.62,6.093c0.117,1.183,1.078,2.071,1.789,3.024c0.711,0.953,1.164,2.403,0.33,3.25
						c-0.819,0.832-2.462,0.596-3.012,1.625c-0.683,1.277,1.169,2.894,0.466,4.16c-0.366,0.66-1.285,0.818-2.006,0.592
						c-0.721-0.226-1.311-0.734-1.94-1.152c-3.507-2.334-8.705-1.627-11.461,1.558c-1.41,1.629-2.164,3.705-3.048,5.669
						c-0.884,1.965-2.007,3.95-3.852,5.062C128.987,138.812,124.257,139.313,123.021,137.548z"/>
					<path style="fill:#96332B;" d="M153.567,113.911c-0.223-2.25,2.702-3.833,2.62-6.093c-0.069-1.896-2.133-2.979-3.895-3.682
						c-1.762-0.703-3.816-1.837-3.821-3.734c-0.003-1.217,0.905-2.355,0.688-3.553c-0.339-1.882-2.931-2.201-4.79-1.752
						c-1.859,0.449-4.068,1.124-5.486-0.159c-0.717-0.649-1.006-1.65-1.635-2.385c-1.157-1.354-3.291-1.52-4.92-0.801
						c-1.63,0.719-2.842,2.135-3.861,3.595c-1.423,2.04-2.907,4.482-5.366,4.859c-2.122,0.325-4.77-0.913-6.173,0.712
						c-1.097,1.271-0.375,3.222,0.419,4.701c0.794,1.479,1.604,3.361,0.617,4.719c-0.323,0.444-0.799,0.752-1.156,1.169
						c-0.781,0.91-0.88,2.341-0.231,3.35c0.649,1.009,1.822,2.442,2.974,2.109c0.612,1.747,1.13,3.526,1.568,5.325
						c0.1-1.422,0.073-2.854-0.213-4.176c-0.408-1.885-2.448-3.128-1.453-5.259c0.317-0.679,1.178-1.527,1.18-2.252
						c0.001-0.434-0.476-1.085-0.673-1.461c-0.243-0.465-0.489-0.93-0.678-1.42c-0.799-2.063,0.106-4.298,2.219-5.12
						c1.497-0.582,3.538,0.197,4.843-0.767c0.904-0.668,1.512-1.743,2.111-2.668c1.154-1.786,2.569-4.233,5.013-4.166
						c1.459,0.04,2.677,0.987,3.691,1.943c0.444,0.418,0.958,0.998,1.593,1.115c0.55,0.101,1.191-0.145,1.715-0.266
						c1.408-0.326,3.138-0.778,4.331,0.333c1.047,0.974,1.092,2.543,1.278,3.86c0.253,1.787,1.205,2.402,2.874,2.857
						c1.451,0.396,3.014,0.984,3.469,2.584c0.299,1.053,0.048,2.118-0.232,3.144c-0.216,0.793-0.473,1.602-0.103,2.386
						c0.609,1.29,1.718,2.349,1.398,3.917c-0.244,1.197-1.217,1.756-1.895,2.67c-0.887,1.196,0.171,2.83-0.227,4.209
						c-0.248,0.859-0.811,1.536-1.335,2.235c0.349,0.236,0.708,0.451,1.109,0.576c0.721,0.226,1.64,0.068,2.006-0.592
						c0.702-1.267-1.149-2.883-0.466-4.16c0.55-1.029,2.193-0.793,3.012-1.625c0.834-0.847,0.381-2.297-0.33-3.25
						C154.645,115.983,153.684,115.094,153.567,113.911z"/>
					<path style="opacity:0.44;fill:#F5A42E;" d="M179.5,173.673h-37.093c0.177,0.27,0.355,0.539,0.539,0.802
						c3.408,4.886,7.885,8.747,12.311,12.554c11.583,9.961,23.166,19.922,34.749,29.883c2.07,1.78,4.229,3.608,6.806,4.266
						c0.966,0.247,1.94,0.316,2.911,0.252v-31.179C193.118,185.03,186.109,179.487,179.5,173.673z"/>
					<path style="fill:#F5A42E;" d="M163.439,162.661c-0.233-4.482-3.048-8.389-7.189-10.121
						c-8.799-3.681-18.637-4.895-28.204-4.291c-8.776,0.554-17.377,2.553-25.77,5.236c-5.496,1.757-8.829,7.305-7.925,13.003
						c5.168,32.579,7.271,66.051,5.983,98.957c-0.084,2.139-0.283,5.22,1.761,5.857c18.806,5.867,45.617,6.832,63.512,2.066
						c4.439-1.182,0.942-5.276,0.955-9.869C166.651,230.623,165.132,195.194,163.439,162.661z"/>
					<path style="opacity:0.44;fill:#F5A42E;" d="M166.562,263.498c0.079-29.201-1.111-60.413-2.565-89.825H95.433
						c4.371,30.303,6.094,61.28,4.901,91.771c-0.047,1.191-0.128,2.672,0.161,3.862h67.164
						C167.296,267.635,166.556,265.622,166.562,263.498z"/>
					<path style="fill:#A66F1F;" d="M151.968,267.242c-7.782,0.733-15.725-0.63-22.842-3.854
						c-6.575-2.978-12.345-7.612-16.772-13.304c-2.448-3.148-4.464-6.622-5.999-10.302c-0.224-0.538-1.025-0.113-0.801,0.422
						c2.795,6.701,7.208,12.692,12.749,17.381c5.883,4.978,13.013,8.383,20.573,9.871c4.38,0.863,8.85,1.087,13.294,0.668
						C152.748,268.07,152.542,267.188,151.968,267.242z"/>
					<path style="fill:#A66F1F;" d="M137.534,157.649c-6.191,1.765-13.16,0.106-17.857-4.311c-0.423-0.397-1.094,0.212-0.668,0.612
						c4.926,4.632,12.215,6.438,18.727,4.582C138.294,158.374,138.097,157.489,137.534,157.649z"/>
					<g>
						<g>
							<g>
								<g>
									<path style="fill:#B96E2B;" d="M122.096,127.371c0.573,7.323,0.403,14.703-0.504,21.991
										c-0.183,1.474,0.442,2.933,1.659,3.786c3.359,2.352,7.643,3.392,11.672,2.786c2.048-0.308,3.486-2.191,3.315-4.256
										c-0.392-4.736-0.512-9.235-0.399-14.135C133.828,132.459,128.26,129.354,122.096,127.371z"/>
								</g>
								<g>
									<path style="fill:#6C301E;" d="M137.838,137.543c-4.01-5.084-9.578-8.189-15.742-10.171
										c0.244,3.122,0.345,6.254,0.32,9.385c2.79,7.635,7.839,14.912,14.644,18.086c0.811-0.805,1.278-1.949,1.178-3.164
										C137.845,146.942,137.725,142.443,137.838,137.543z"/>
								</g>
								<g>
									<path style="fill:#B96E2B;" d="M148.012,115.432c1.364,10.225-2.872,29.154-8.492,28.534
										c-7.632-1.084-14.648-7.143-16.672-14.581c0.035,0.128-0.831,0.61-1.715,0.558c-0.873-0.051-2.033-1.081-2.511-1.797
										c-0.924-1.383-1.864-3.539-0.87-5.122c1.195-1.904,3.841-2.292,4.959-0.057c-0.083-3.739,1.138-7.199,2.435-10.691
										c0.411-1.106,1.28-1.991,2.394-2.381c5.371-1.881,12.014-1.966,17.43-0.252c1.063,0.337,1.888,1.177,2.22,2.242
										C147.566,113.093,147.882,114.462,148.012,115.432z"/>
									<path style="fill:#3B1411;" d="M137.071,116.07c-1.647-2.089-6.174-0.648-7.84,0.694c-0.305,0.245-0.672,0.559-0.635,0.992
										c0.019,0.225,0.143,0.419,0.368,0.484c0.512,0.146,0.998-0.278,1.424-0.501c0.564-0.295,1.161-0.518,1.783-0.656
										c0.766-0.171,1.561-0.218,2.342-0.134c0.756,0.081,1.48,0.433,2.242,0.319C137.351,117.177,137.36,116.436,137.071,116.07z
										"/>
									<path style="fill:#3B1411;" d="M134.663,119.733c-0.041-0.124-0.11-0.232-0.208-0.323
										c-0.091-0.098-0.199-0.167-0.324-0.208c-0.12-0.063-0.249-0.092-0.387-0.087c-0.089,0.012-0.178,0.024-0.267,0.036
										c-0.17,0.048-0.318,0.134-0.443,0.258c-0.052,0.068-0.105,0.135-0.157,0.203c-0.091,0.157-0.137,0.326-0.137,0.507v0.108
										c-0.005,0.138,0.024,0.267,0.087,0.387c0.041,0.125,0.11,0.232,0.208,0.323c0.091,0.098,0.199,0.167,0.323,0.208
										c0.12,0.063,0.249,0.092,0.387,0.087l0.267-0.036c0.17-0.048,0.318-0.134,0.444-0.258c0.052-0.068,0.105-0.136,0.157-0.203
										c0.091-0.157,0.137-0.326,0.137-0.507v-0.108C134.755,119.981,134.726,119.852,134.663,119.733z"/>
									<path style="fill:#3B1411;" d="M145.661,120.355c-0.041-0.125-0.11-0.232-0.208-0.323
										c-0.091-0.098-0.199-0.167-0.323-0.208c-0.12-0.063-0.249-0.092-0.387-0.087c-0.089,0.012-0.178,0.024-0.267,0.036
										c-0.17,0.048-0.318,0.134-0.443,0.258c-0.052,0.068-0.105,0.136-0.157,0.203c-0.091,0.157-0.137,0.326-0.137,0.507v0.108
										c-0.005,0.138,0.024,0.267,0.087,0.387c0.041,0.125,0.11,0.232,0.208,0.323c0.091,0.098,0.199,0.167,0.323,0.208
										c0.12,0.063,0.249,0.092,0.387,0.087l0.267-0.036c0.17-0.048,0.318-0.134,0.443-0.258c0.053-0.068,0.105-0.136,0.157-0.203
										c0.091-0.157,0.137-0.326,0.137-0.507v-0.108C145.753,120.604,145.724,120.475,145.661,120.355z"/>
									<path style="fill:#3B1411;" d="M147.651,117.52c-0.389-0.757-1.227-1.146-2.033-1.359
										c-0.786-0.207-1.589-0.242-2.379-0.045c-0.364,0.091-0.587,0.467-0.539,0.826c0.082,0.611,0.6,0.632,1.084,0.638
										c0.653,0.008,1.274,0.093,1.88,0.35c0.407,0.173,2.539,1.238,2.111-0.109C147.741,117.714,147.699,117.614,147.651,117.52z
										"/>
									<path style="fill:#6C301E;" d="M138.498,137.688c-0.297-0.092-0.668-0.001-0.977-0.001c-0.279,0-0.625-0.021-0.861-0.054
										c-0.299-0.042-0.599-0.105-0.891-0.18c-0.32-0.082-0.622-0.225-0.958-0.195c-0.356,0.032-0.483,0.391-0.274,0.661
										c0.225,0.291,0.592,0.397,0.929,0.512c0.319,0.108,0.643,0.186,0.976,0.237c0.347,0.053,0.696,0.09,1.047,0.096
										c0.357,0.007,0.815,0.039,1.131-0.146C139.006,138.39,138.911,137.816,138.498,137.688z"/>
									<path style="fill:#6C301E;" d="M121.885,126.808c-0.315,0.107-0.759-0.053-0.831-0.421
										c-0.037-0.188,0.06-0.342,0.176-0.488c0.112-0.141,0.279-0.223,0.442-0.225c0.259-0.003,0.459-0.254,0.388-0.509
										c-0.301-1.074-1.16-2.173-2.4-2.049c-0.549,0.055-1.048,0.366-1.281,0.877c-0.109,0.239-0.132,0.501-0.067,0.754
										c0.037,0.146,0.222,0.523,0.429,0.335c0.123-0.112,0.084-0.278,0.125-0.423c0.043-0.154,0.107-0.3,0.197-0.433
										c0.183-0.269,0.496-0.372,0.811-0.341c0.632,0.061,1.037,0.559,1.272,1.109c-0.567,0.256-0.932,0.883-0.759,1.531
										c0.187,0.702,0.987,1.162,1.683,0.951C122.495,127.346,122.306,126.665,121.885,126.808z"/>
								</g>
							</g>
						</g>
						<path style="fill:#6C301E;" d="M142.814,126.291c-0.673-1.01-1.196-2.112-1.554-3.272c-0.171-0.553-1.056-0.357-0.883,0.202
							c0.295,0.957,0.683,1.885,1.181,2.755c0.258,0.451,0.545,0.885,0.852,1.304c0.292,0.399,0.635,0.765,0.897,1.185
							c0.24,0.384,0.443,0.844,0.187,1.272c-0.226,0.378-0.683,0.593-1.067,0.77c-0.99,0.455-2.074,0.66-3.161,0.636
							c-0.582-0.013-0.624,0.892-0.04,0.905c1.225,0.026,2.436-0.207,3.556-0.709c0.917-0.411,1.845-1.104,1.728-2.226
							C144.394,128.005,143.401,127.172,142.814,126.291z"/>
						<path style="fill:#3B1411;" d="M140.386,134.444c-2.334,0.604-4.894-0.181-6.486-1.992c-0.385-0.439-1.053,0.174-0.668,0.612
							c1.796,2.044,4.721,2.945,7.356,2.263C141.15,135.181,140.952,134.297,140.386,134.444z"/>
					</g>
					<g>
						<g>
							<path style="fill:#FFFFFF;" d="M134.437,126.372c-2.833,0-5.138-2.305-5.138-5.138c0-2.834,2.305-5.138,5.138-5.138
								c2.834,0,5.138,2.305,5.138,5.138C139.575,124.067,137.27,126.372,134.437,126.372z M134.437,116.774
								c-2.459,0-4.459,2-4.459,4.459s2,4.459,4.459,4.459c2.458,0,4.459-2,4.459-4.459S136.895,116.774,134.437,116.774z"/>
						</g>
						<g>
							<path style="fill:#FFFFFF;" d="M146.809,126.372c-2.833,0-5.138-2.305-5.138-5.138c0-2.834,2.305-5.138,5.138-5.138
								c2.834,0,5.139,2.305,5.139,5.138C151.948,124.067,149.643,126.372,146.809,126.372z M146.809,116.774
								c-2.459,0-4.459,2-4.459,4.459s2,4.459,4.459,4.459c2.459,0,4.46-2,4.46-4.459S149.268,116.774,146.809,116.774z"/>
						</g>
						<g>
							<path style="fill:#FFFFFF;" d="M142.078,119.488c-0.236-0.481-0.856-0.662-1.341-0.629c-0.571,0.041-1.113,0.305-1.711,0.62
								l-0.317-0.602c0.643-0.338,1.277-0.645,1.979-0.696c0.72-0.057,1.622,0.239,2,1.007L142.078,119.488z"/>
						</g>
						<g>
							<path style="fill:#FFFFFF;" d="M122.267,122.132l-0.275-0.621c2.434-1.076,5.132-1.614,7.787-1.547l-0.017,0.679
								C127.201,120.581,124.609,121.096,122.267,122.132z"/>
						</g>
					</g>
				</g>
				<g>
					<rect x="36.525" y="177.195" style="fill:#9FDADC;" width="158.572" height="86.888"/>
					<g>
						
							<line style="fill:none;stroke:#FFFFFF;stroke-width:2;stroke-linecap:round;stroke-miterlimit:10;" x1="93.36" y1="220.639" x2="187.278" y2="220.639"/>
						
							<line style="fill:none;stroke:#FFFFFF;stroke-width:2;stroke-linecap:round;stroke-miterlimit:10;" x1="93.36" y1="226.438" x2="187.278" y2="226.438"/>
						
							<line style="fill:none;stroke:#FFFFFF;stroke-width:2;stroke-linecap:round;stroke-miterlimit:10;" x1="93.36" y1="232.236" x2="187.278" y2="232.236"/>
						
							<line style="fill:none;stroke:#FFFFFF;stroke-width:2;stroke-linecap:round;stroke-miterlimit:10;" x1="135.396" y1="238.034" x2="187.278" y2="238.034"/>
					</g>
					<g>
						<polygon style="fill:#FFFFFF;" points="182.479,191.007 184.912,195.937 190.353,196.727 186.416,200.565 187.345,205.984 
							182.479,203.426 177.612,205.984 178.542,200.565 174.604,196.727 180.046,195.937 						"/>
						<polygon style="fill:#FFFFFF;" points="156.189,191.007 158.622,195.937 164.063,196.727 160.126,200.565 161.055,205.984 
							156.189,203.426 151.322,205.984 152.251,200.565 148.314,196.727 153.755,195.937 						"/>
						<polygon style="fill:#FFFFFF;" points="129.898,191.007 132.332,195.937 137.773,196.727 133.836,200.565 134.765,205.984 
							129.898,203.426 125.032,205.984 125.961,200.565 122.024,196.727 127.465,195.937 						"/>
						<polygon style="fill:#FFFFFF;" points="103.608,191.007 106.041,195.937 111.482,196.727 107.545,200.565 108.475,205.984 
							103.608,203.426 98.741,205.984 99.671,200.565 95.734,196.727 101.175,195.937 						"/>
					</g>
					<rect x="50.033" y="185.661" style="fill:#FFFFFF;" width="34.098" height="48.463"/>
				</g>
				<g>
					<g>
						<g>
							<g>
								<path style="fill:#B96E2B;" d="M112.302,268.324c0.06-0.574-0.097-1.147-0.268-1.698c-1.27-4.097-3.413-8.131-6.319-11.311
									c-3.049-3.337-6.42,0.251-3.688,3.492c0.791,0.938,1.824,1.634,2.744,2.446c1.784,1.574,3.154,3.613,3.937,5.859
									c0.229,0.657,0.417,1.348,0.844,1.898c0.427,0.549,1.177,0.924,1.827,0.676C111.919,269.48,112.243,268.899,112.302,268.324
									z"/>
								<path style="fill:#B96E2B;" d="M109.21,271.155c0.06-0.574-0.097-1.147-0.268-1.698c-1.27-4.097-3.413-8.131-6.319-11.311
									c-3.049-3.336-6.42,0.251-3.688,3.492c0.791,0.938,1.824,1.634,2.744,2.446c1.784,1.574,3.154,3.613,3.937,5.859
									c0.229,0.657,0.418,1.348,0.845,1.898c0.427,0.55,1.177,0.924,1.827,0.676C108.826,272.31,109.15,271.729,109.21,271.155z"
									/>
								<path style="fill:#B96E2B;" d="M105.129,271.269c0.06-0.574-0.097-1.147-0.268-1.698c-1.27-4.096-3.413-8.131-6.319-11.311
									c-3.049-3.336-6.42,0.251-3.688,3.492c0.791,0.938,1.824,1.634,2.744,2.446c1.784,1.574,3.154,3.613,3.937,5.859
									c0.229,0.657,0.418,1.348,0.844,1.898c0.427,0.549,1.177,0.924,1.827,0.676
									C104.745,272.425,105.069,271.844,105.129,271.269z"/>
								<path style="fill:#B96E2B;" d="M100.456,268.453c0.14,0.45,0.268,0.918,0.219,1.387c-0.049,0.469-0.313,0.944-0.754,1.112
									c-0.531,0.203-1.143-0.103-1.492-0.552c-0.349-0.449-0.502-1.013-0.689-1.549c-0.639-1.834-1.758-3.498-3.215-4.784
									c-0.751-0.663-1.594-1.231-2.24-1.997c-2.231-2.647,0.522-5.575,3.011-2.851C97.669,261.815,99.419,265.108,100.456,268.453
									z"/>
								<path style="fill:#B96E2B;" d="M105.323,254.927c-2.08-1.654-3.403-2.473-5.855-3.497c-2.452-1.024-5.308-1.357-7.756-0.323
									c-2.448,1.034-4.307,3.652-3.93,6.282c0.224,1.568,1.178,2.954,2.349,4.02c2.424,2.207,5.896,3.207,9.122,2.629
									c3.226-0.578,6.135-2.723,7.641-5.634L105.323,254.927z"/>
							</g>
						</g>
						<g>
							<path style="fill:#F5A42E;" d="M106.56,153.348c-6.137-0.327-12.125,2.233-16.847,5.865
								c-4.722,3.631-8.371,8.283-11.968,12.882c-9.411,12.034-18.822,24.068-28.233,36.102c-1.682,2.15-3.408,4.393-3.945,6.998
								c-0.822,3.984,1.28,7.952,3.538,11.432c6.96,10.723,16.068,20.255,26.725,27.971c3.266,2.364,7.216,4.676,11.281,3.898
								c3.662-0.7,6.336-3.884,7.09-7.263c0.754-3.38-0.099-6.898-1.399-10.133c-3.557-8.846-10.314-16.229-16.942-23.414
								c7.904-11.013,16.625-23.27,26.041-33.22c4.224-4.463,8.867-8.905,10.784-14.56
								C114.603,164.251,112.971,153.69,106.56,153.348z"/>
							<path style="fill:#F5A42E;" d="M84.131,256.652c0.957,0.563,1.556,1.559,2.206,2.459c0.65,0.9,1.484,1.793,2.582,1.958
								c0.671,0.1,1.351-0.089,1.982-0.335c4.018-1.568,6.886-5.713,6.938-10.025c-1.93-1.857-3.907-3.138-6.42-4.067
								L84.131,256.652z"/>
						</g>
					</g>
					<path style="fill:#A66F1F;" d="M75.839,216.754c-4.37-2.505-9.699-3.111-14.512-1.604c-0.552,0.173-0.356,1.058,0.202,0.883
						c4.582-1.434,9.649-0.908,13.818,1.483C75.853,217.805,76.345,217.044,75.839,216.754z"/>
					<path style="fill:#A66F1F;" d="M69.746,216.126c-1.802-0.494-3.689-0.388-5.432,0.276c-0.229,0.087-0.294,0.414-0.189,0.612
						c0.125,0.238,0.382,0.277,0.612,0.189c1.502-0.572,3.183-0.639,4.731-0.215C70.029,217.142,70.309,216.28,69.746,216.126z"/>
					<path style="fill:#A66F1F;" d="M94.939,248.079c-0.101-0.574-0.984-0.372-0.883,0.202c0.389,2.202-0.139,4.512-1.479,6.308
						c-1.248,1.674-3.146,2.777-5.193,3.13c-0.574,0.099-0.372,0.982,0.202,0.883c2.283-0.393,4.366-1.664,5.752-3.522
						C94.822,253.091,95.368,250.51,94.939,248.079z"/>
				</g>
			</g>
			<g>
				<g>
					<rect x="240.845" y="117.933" style="fill:#9FDADC;" width="50.876" height="47.609"/>
					<path style="fill:#B96E2B;" d="M237.117,170.096c1.332,0.027,2.736,0.036,3.899-0.613c1.163-0.65,1.932-2.206,1.263-3.358
						c1.903-1.191,3.352-3.316,4.302-5.479c0.211-0.48-0.34-0.942-0.784-0.664c-3.057,1.914-6.158,3.682-8.659,6.297
						C236.384,167.067,236.635,169.117,237.117,170.096z"/>
				</g>
				<path style="fill:#FFFFFF;" d="M274.813,137.518c-0.445-1.99-2.159-3.29-3.857-3.4c-1.656-0.12-3.272,0.7-4.673,1.79
					c-1.393-1.09-3.008-1.91-4.664-1.79c-1.698,0.11-3.42,1.41-3.865,3.4c-0.519,2.32,0.758,4.66,2.151,6.37
					c1.797,2.21,3.915,4.05,6.23,5.39c0.049,0.04,0.099,0.07,0.148,0.09l0.148-0.09c2.316-1.34,4.434-3.18,6.239-5.39
					C274.055,142.178,275.332,139.838,274.813,137.518z"/>
			</g>
		</g>
		<g>
			<path style="fill:#F5A42E;" d="M392.989,167.036c3.687,6.677,7.092,13.178,10.268,19.762
				c-2.662,6.215-7.195,12.204-13.057,15.777c-3.838-6.068-7.474-12.265-10.889-18.581L392.989,167.036z"/>
			<path style="fill:#F5A42E;" d="M396.099,247.445c-9.74-22.296-9.533-15.843-11.498-28.039
				c-2.634-16.344,3.322-32.828,8.272-48.633c0.853-2.724-0.127-5.696-2.388-7.336c-4.429-3.212-24.542-14.477-51.761-0.58
				c-1.826,0.932-2.473,3.313-2.389,5.409c0.273,6.816,0.4,13.86,1.623,20.651c1.339,7.436,3.812,14.618,4.834,22.06
				c0.652,4.747,1.085,9.498,1.101,14.26c0.036,9.526-8.625,19.411-9.013,29.052C354.904,257.487,377.031,255.424,396.099,247.445z"
				/>
			<path style="fill:#7A5217;" d="M334.879,254.288c-0.035,0.877-0.008,1.752,0.106,2.624c24.031,4.579,40.625,3.654,62.541-6.164
				c-0.501-1.175-0.971-2.26-1.428-3.305C377.031,255.424,354.904,257.487,334.879,254.288z"/>
			<path style="fill:#FFC9B9;" d="M372.948,163.788c-0.879,0.987-2.203,1.79-3.508,2.579c-3.407,2.058-6.813,4.116-10.22,6.174
				c-0.548,0.331-1.157,0.681-1.921,0.734c-1.331,0.093-2.317-0.725-2.918-1.461c-1.742-2.132-2.862-4.512-2.58-6.891
				c0.282-2.38,2.103-4.753,5.3-6.105C362.399,156.576,378.008,158.107,372.948,163.788z"/>
			<g>
				<g>
					<g>
						<path style="fill:#FFC9B9;" d="M263.128,193.058c-0.552-0.319-1.108-0.667-1.489-1.177c-0.381-0.511-0.554-1.225-0.27-1.796
							c0.342-0.688,1.231-0.946,1.988-0.819c0.758,0.126,1.428,0.546,2.106,0.908c2.317,1.237,4.955,1.866,7.581,1.808
							c1.354-0.03,2.714-0.238,4.058-0.069c4.644,0.586,4.593,6.021-0.379,5.595C271.984,197.102,267.226,195.432,263.128,193.058z"
							/>
						<path style="fill:#FFC9B9;" d="M263.52,188.446c-0.552-0.32-1.108-0.667-1.489-1.177c-0.381-0.511-0.554-1.225-0.27-1.796
							c0.342-0.688,1.231-0.946,1.988-0.819c0.758,0.126,1.428,0.546,2.106,0.908c2.317,1.237,4.955,1.866,7.581,1.808
							c1.354-0.03,2.714-0.238,4.058-0.069c4.644,0.586,4.593,6.02-0.379,5.595C272.376,192.49,267.617,190.82,263.52,188.446z"/>
						<path style="fill:#FFC9B9;" d="M266.746,185.298c-0.552-0.32-1.108-0.667-1.489-1.177c-0.381-0.511-0.554-1.225-0.27-1.796
							c0.342-0.688,1.231-0.946,1.988-0.819c0.758,0.126,1.428,0.546,2.106,0.908c2.317,1.237,4.955,1.866,7.581,1.808
							c1.354-0.03,2.714-0.238,4.058-0.069c4.644,0.586,4.593,6.021-0.379,5.595C275.602,189.342,270.843,187.672,266.746,185.298z"
							/>
						<path style="fill:#FFC9B9;" d="M271.157,182.908c-0.45-0.261-0.905-0.544-1.216-0.961c-0.311-0.417-0.452-1-0.221-1.466
							c0.279-0.562,1.005-0.772,1.623-0.669c0.619,0.103,1.166,0.446,1.719,0.741c1.892,1.01,4.046,1.523,6.19,1.476
							c1.106-0.024,2.216-0.194,3.313-0.056c3.791,0.478,3.75,4.915-0.309,4.568C278.388,186.21,274.503,184.846,271.157,182.908z"
							/>
						<path style="fill:#FFC9B9;" d="M277.332,197.529c2.926-0.215,4.614-0.54,7.37-1.545c2.757-1.005,5.323-2.872,6.536-5.543
							c1.213-2.671,0.762-6.187-1.513-8.04c-1.355-1.104-3.167-1.515-4.916-1.504c-3.619,0.023-7.186,1.81-9.371,4.695
							c-2.185,2.885-2.94,6.802-1.983,10.292L277.332,197.529z"/>
					</g>
					<path style="fill:#FFC9B9;" d="M282.256,190.413c9.28,9.329,18.56,18.659,27.839,27.989c1.766,1.775,3.571,3.579,5.87,4.646
						c2.299,1.067,5.214,1.299,7.703-0.057c4.18-2.277,5.427-8.144,3.775-12.106c-1.653-3.961-5.319-6.46-8.84-8.786
						c-10.133-6.696-20.266-13.391-30.398-20.087L282.256,190.413z"/>
				</g>
			</g>
			<g>
				<path style="fill:#495358;" d="M351.178,98.108c-3.182,0.795-6.154,2.177-8.424,4.488c-4.594,4.677-5.891,11.667-6.096,17.981
					c-0.369,11.358,2.243,22.656,7.469,32.305c11.737,4.148,24.848,3.144,36.449-2.555c1.727-8.516,4.014-17.742,3.348-26.303
					c-0.713-9.164-4.482-22.154-14.148-25.597c-2.687-0.957-5.571-1.221-8.423-1.278C358.112,97.085,354.529,97.271,351.178,98.108z
					"/>
				<path style="fill:#263238;" d="M351.89,101.305c-3.003,0.75-5.809,2.055-7.952,4.236c-4.337,4.415-5.561,11.013-5.755,16.974
					c-0.348,10.722,2.118,21.387,7.051,30.496c11.08,3.915,23.456,2.968,34.407-2.412c1.631-8.039,3.789-16.748,3.16-24.829
					c-0.673-8.651-4.231-20.913-13.355-24.163c-2.536-0.904-5.259-1.153-7.951-1.207
					C358.436,100.339,355.053,100.514,351.89,101.305z"/>
				<g>
					<g>
						<g>
							<path style="fill:#FFC9B9;" d="M371.399,132.39c-1,7.911-1.456,15.925-1.36,23.879c0.019,1.609-0.557,3.158-1.523,4.017
								c-2.666,2.371-5.912,3.269-8.839,2.396c-1.488-0.444-2.402-2.564-2.113-4.794c0.663-5.116,1.105-9.989,1.408-15.31
								C362.333,137.279,366.69,134.21,371.399,132.39z"/>
							<path style="fill:#FF9979;" d="M358.971,142.578c3.362-5.299,7.719-8.368,12.427-10.188
								c-0.263,2.082-0.486,4.171-0.674,6.264c-3.21,6.392-7.772,12.744-12.742,15.648
								C358.413,150.452,358.74,146.643,358.971,142.578z"/>
						</g>
						<g>
							<path style="fill:#FFC9B9;" d="M344.457,121.202c0.197,12.606,6.683,25.76,9.953,25.481
								c10.845-0.923,15.422-12.376,15.46-12.515c-0.038,0.139,1.736,0.616,2.698,0.56c0.949-0.056,2.211-1.175,2.731-1.954
								c1.005-1.505,2.027-3.849,0.947-5.57c-1.3-2.07-4.972-2.344-6.187,0.087c-4.681-5.398-2.709-9.277-3.669-13.797
								c-6.155-2.789-13.295-2.922-19.872-0.801C345.419,113.047,344.439,120.037,344.457,121.202z"/>
							<path style="fill:#3B1411;" d="M357.854,123.623c0.044-0.136,0.12-0.253,0.226-0.352c0.099-0.107,0.216-0.182,0.352-0.226
								c0.13-0.068,0.271-0.1,0.421-0.094c0.097,0.013,0.194,0.026,0.291,0.039c0.185,0.052,0.346,0.146,0.482,0.281
								c0.057,0.074,0.114,0.147,0.171,0.221c0.099,0.17,0.149,0.354,0.149,0.552v0.117c0.006,0.15-0.026,0.291-0.094,0.421
								c-0.044,0.135-0.119,0.253-0.226,0.352c-0.099,0.107-0.216,0.182-0.352,0.226c-0.13,0.068-0.271,0.1-0.421,0.094l-0.29-0.039
								c-0.185-0.052-0.346-0.146-0.482-0.281c-0.057-0.074-0.114-0.147-0.171-0.221c-0.099-0.171-0.149-0.354-0.149-0.552v-0.117
								C357.754,123.893,357.785,123.753,357.854,123.623z"/>
							<path style="fill:#3B1411;" d="M347.207,124.3c0.044-0.135,0.119-0.253,0.226-0.352c0.099-0.107,0.216-0.182,0.352-0.226
								c0.13-0.068,0.271-0.1,0.421-0.094c0.097,0.013,0.194,0.026,0.29,0.039c0.185,0.052,0.346,0.146,0.482,0.281
								c0.057,0.074,0.114,0.147,0.171,0.221c0.099,0.17,0.149,0.354,0.149,0.552v0.117c0.006,0.151-0.026,0.291-0.094,0.421
								c-0.044,0.135-0.119,0.253-0.226,0.352c-0.099,0.107-0.216,0.182-0.352,0.226c-0.13,0.068-0.27,0.1-0.421,0.094l-0.29-0.039
								c-0.185-0.052-0.346-0.146-0.482-0.281c-0.057-0.074-0.114-0.147-0.171-0.221c-0.099-0.171-0.149-0.354-0.149-0.552v-0.117
								C347.107,124.57,347.139,124.43,347.207,124.3z"/>
							<path style="fill:#FF9979;" d="M371.75,131.317c0.343,0.117,0.826-0.058,0.904-0.458c0.04-0.204-0.065-0.372-0.191-0.531
								c-0.122-0.153-0.303-0.243-0.481-0.245c-0.282-0.004-0.499-0.276-0.421-0.553c0.328-1.168,1.262-2.363,2.609-2.228
								c0.597,0.06,1.14,0.397,1.394,0.953c0.119,0.26,0.144,0.545,0.073,0.82c-0.041,0.159-0.241,0.569-0.466,0.365
								c-0.134-0.122-0.092-0.302-0.136-0.46c-0.047-0.167-0.116-0.326-0.214-0.471c-0.199-0.293-0.539-0.404-0.882-0.371
								c-0.687,0.066-1.127,0.608-1.383,1.206c0.617,0.278,1.013,0.96,0.825,1.665c-0.204,0.764-1.073,1.264-1.83,1.034
								C371.086,131.902,371.292,131.161,371.75,131.317z"/>
						</g>
					</g>
					<path style="fill:#263238;" d="M354.815,117.704c2.241-0.333,4.529-0.011,6.608,0.88c0.591,0.253,0.123,1.137-0.466,0.885
						c-1.92-0.823-4.035-1.072-6.098-0.766c-0.267,0.04-0.51-0.228-0.521-0.478C354.325,117.932,354.547,117.744,354.815,117.704z"
						/>
					<path style="fill:#263238;" d="M344.918,119.089c1.179-0.915,2.757-1.226,4.187-0.771c0.249,0.079,0.425,0.365,0.335,0.623
						c-0.089,0.253-0.356,0.42-0.623,0.335c-0.15-0.048-0.301-0.088-0.455-0.117c-0.011-0.002-0.062-0.011-0.068-0.012
						c-0.023-0.003-0.046-0.006-0.069-0.009c-0.074-0.009-0.147-0.016-0.222-0.021c-0.156-0.01-0.313-0.011-0.47-0.004
						c-0.041,0.002-0.083,0.005-0.124,0.008c-0.006,0-0.04,0.004-0.053,0.005c-0.018,0.003-0.081,0.011-0.089,0.012
						c-0.041,0.006-0.081,0.013-0.122,0.02c-0.146,0.026-0.291,0.06-0.434,0.102c-0.072,0.021-0.142,0.044-0.212,0.068
						c-0.02,0.007-0.022,0.007-0.031,0.01c-0.003,0.001,0,0.001-0.012,0.005c-0.038,0.015-0.076,0.031-0.114,0.048
						c-0.136,0.059-0.269,0.126-0.397,0.2c-0.071,0.041-0.142,0.085-0.21,0.13c-0.021,0.014-0.041,0.028-0.062,0.042
						c-0.007,0.006-0.074,0.057-0.075,0.058c-0.213,0.165-0.511,0.185-0.707-0.026C344.721,119.612,344.704,119.256,344.918,119.089
						z"/>
					<path style="fill:#FF9979;" d="M352.145,129.418c0.643-0.037,0.687,0.962,0.044,0.999c-0.949,0.055-1.835,0.888-1.872,1.856
						c-0.04,1.01,0.767,1.897,1.748,2.04c0.267,0.039,0.432,0.351,0.376,0.599c-0.064,0.281-0.331,0.415-0.599,0.376
						c-1.42-0.208-2.6-1.594-2.52-3.04C349.403,130.759,350.655,129.504,352.145,129.418z"/>
					<path style="fill:#FF9979;" d="M353.629,140.451c1.097-0.103,2.195-0.206,3.292-0.31c0.261-0.025,0.522,0.217,0.522,0.478
						c0,0.282-0.198,0.495-0.478,0.521c-1.097,0.103-2.195,0.206-3.292,0.31c-0.261,0.025-0.522-0.217-0.521-0.478
						C353.151,140.691,353.349,140.478,353.629,140.451z"/>
					<path d="M357.718,135.91c-1.434,1.464-3.477,2.193-5.513,1.972c-0.57-0.062-0.607,0.828-0.039,0.89
						c2.251,0.245,4.57-0.588,6.154-2.205C358.719,136.159,358.12,135.5,357.718,135.91z"/>
				</g>
				<path style="fill:#263238;" d="M345.784,108.931c-2.03,2.195,1.204,5.203,2.869,6.807c5.417,5.222,14.235,6.639,21.297,8.254
					c2.304,0.527,3.357-0.883,3.539-3.122c0.71-8.756-7.587-14.562-15.498-15.128c-3.702-0.265-8.816,0.431-11.826,2.838
					C346.022,108.694,345.895,108.811,345.784,108.931z"/>
			</g>
			<g>
				<g>
					<rect x="378.76" y="96.018" style="fill:#9FDADC;" width="94.985" height="57.647"/>
					<g>
						
							<line style="fill:none;stroke:#FFFFFF;stroke-width:2;stroke-linecap:round;stroke-miterlimit:10;" x1="384.478" y1="129.085" x2="466.885" y2="129.085"/>
						
							<line style="fill:none;stroke:#FFFFFF;stroke-width:2;stroke-linecap:round;stroke-miterlimit:10;" x1="384.478" y1="134.172" x2="466.885" y2="134.172"/>
						
							<line style="fill:none;stroke:#FFFFFF;stroke-width:2;stroke-linecap:round;stroke-miterlimit:10;" x1="384.478" y1="139.26" x2="466.885" y2="139.26"/>
						
							<line style="fill:none;stroke:#FFFFFF;stroke-width:2;stroke-linecap:round;stroke-miterlimit:10;" x1="421.363" y1="144.348" x2="466.885" y2="144.348"/>
					</g>
					<g>
						<polygon style="fill:#FFFFFF;" points="462.674,103.084 464.809,107.41 469.583,108.104 466.129,111.471 466.944,116.226 
							462.674,113.981 458.404,116.226 459.219,111.471 455.765,108.104 460.539,107.41 						"/>
						<polygon style="fill:#FFFFFF;" points="439.606,103.084 441.741,107.41 446.515,108.104 443.061,111.471 443.876,116.226 
							439.606,113.981 435.336,116.226 436.152,111.471 432.697,108.104 437.471,107.41 						"/>
						<polygon style="fill:#FFFFFF;" points="416.538,103.084 418.673,107.41 423.448,108.104 419.993,111.471 420.809,116.226 
							416.538,113.981 412.268,116.226 413.084,111.471 409.629,108.104 414.403,107.41 						"/>
						<polygon style="fill:#FFFFFF;" points="393.471,103.084 395.606,107.41 400.38,108.104 396.925,111.471 397.741,116.226 
							393.471,113.981 389.201,116.226 390.016,111.471 386.561,108.104 391.335,107.41 						"/>
					</g>
				</g>
				<g>
					<g>
						<path style="fill:#FFC9B9;" d="M403.257,186.798c3.687,7.644,7.061,15.402,10.147,23.701c1.138,3.061,2.248,6.322,1.634,9.529
							c-0.614,3.207-3.628,6.191-6.832,5.557c-2.23-0.441-3.801-2.386-5.151-4.214c-4.511-6.107-8.797-12.379-12.855-18.796
							C396.062,199.002,400.595,193.014,403.257,186.798z"/>
					</g>
					<path style="fill:#F5A42E;" d="M336.881,165.293c-3.687,6.677-7.092,13.178-10.268,19.762
						c2.662,6.215,7.195,12.204,13.057,15.777c3.838-6.068,7.473-12.265,10.889-18.581L336.881,165.293z"/>
					<g>
						<path style="fill:#FFC9B9;" d="M326.612,185.056c-3.687,7.644-7.061,15.402-10.147,23.701
							c-1.138,3.061-2.248,6.322-1.634,9.529c0.614,3.207,3.628,6.191,6.832,5.557c2.23-0.441,3.801-2.386,5.151-4.214
							c4.511-6.107,8.797-12.379,12.856-18.796C333.808,197.259,329.274,191.271,326.612,185.056z"/>
					</g>
					<g>
						<g>
							<g>
								<path style="fill:#FFC9B9;" d="M434.639,146.898c0.146-0.62,0.274-1.264,0.164-1.891c-0.111-0.628-0.512-1.243-1.122-1.428
									c-0.735-0.223-1.532,0.248-1.96,0.886c-0.428,0.638-0.581,1.414-0.783,2.156c-0.688,2.535-2.039,4.887-3.881,6.759
									c-0.95,0.965-2.034,1.812-2.832,2.907c-2.757,3.783,1.235,7.471,4.333,3.56
									C431.512,156.118,433.559,151.509,434.639,146.898z"/>
								<path style="fill:#FFC9B9;" d="M431.013,144.021c0.146-0.621,0.274-1.264,0.164-1.891c-0.11-0.628-0.512-1.243-1.122-1.428
									c-0.735-0.223-1.532,0.248-1.96,0.886c-0.427,0.638-0.581,1.414-0.783,2.156c-0.688,2.535-2.038,4.887-3.881,6.759
									c-0.95,0.965-2.034,1.813-2.832,2.907c-2.757,3.783,1.235,7.471,4.333,3.56
									C427.886,153.242,429.933,148.632,431.013,144.021z"/>
								<path style="fill:#FFC9B9;" d="M426.51,144.212c0.145-0.621,0.274-1.264,0.164-1.891c-0.11-0.628-0.512-1.243-1.122-1.428
									c-0.735-0.223-1.532,0.248-1.96,0.886c-0.427,0.638-0.581,1.414-0.783,2.156c-0.688,2.535-2.039,4.887-3.881,6.759
									c-0.95,0.965-2.034,1.812-2.832,2.907c-2.757,3.783,1.235,7.471,4.333,3.56C423.383,153.432,425.429,148.823,426.51,144.212
									z"/>
								<path style="fill:#FFC9B9;" d="M421.745,145.786c0.119-0.507,0.224-1.032,0.134-1.544c-0.09-0.512-0.418-1.015-0.916-1.166
									c-0.6-0.182-1.251,0.202-1.6,0.723c-0.349,0.521-0.475,1.155-0.639,1.76c-0.562,2.07-1.664,3.99-3.169,5.518
									c-0.776,0.788-1.66,1.48-2.312,2.373c-2.251,3.088,1.008,6.1,3.538,2.906C419.193,153.314,420.863,149.55,421.745,145.786z"
									/>
								<path style="fill:#FFC9B9;" d="M428.158,160.305c-2.162,1.983-3.556,2.989-6.177,4.307c-2.621,1.318-5.74,1.907-8.517,0.959
									c-2.776-0.948-5.027-3.687-4.816-6.613c0.126-1.744,1.068-3.345,2.275-4.61c2.498-2.619,6.244-3.991,9.842-3.605
									c3.598,0.386,6.968,2.522,8.853,5.611L428.158,160.305z"/>
							</g>
							<path style="fill:#FFC9B9;" d="M419.601,159.439c0.431,17.098,0.863,34.195,1.294,51.293
								c0.082,3.253,0.158,6.569-0.641,9.696c-0.799,3.127-2.628,6.092-5.322,7.24c-4.523,1.927-9.65-2.121-11.401-7.216
								c-1.751-5.094-1.057-10.792-0.338-16.197c2.071-15.558,4.142-31.115,6.214-46.673L419.601,159.439z"/>
						</g>
						<path style="fill:#FF9979;" d="M405.04,190.33c0.057-0.632,1.057-0.684,0.999-0.044l-1.326,14.77
							c-0.057,0.632-1.056,0.684-0.999,0.044C404.156,200.176,404.598,195.253,405.04,190.33z"/>
					</g>
				</g>
			</g>
			<path style="fill:#A66F1F;" d="M386.351,190.812c0.988-3.645,2.247-7.213,3.756-10.675c0.257-0.59,1.141-0.122,0.885,0.466
				c-5.287,12.129-7.317,25.607-5.942,38.761c0.388,3.706,1.052,7.377,1.981,10.986c0.16,0.621-0.791,0.932-0.952,0.308
				C382.727,217.64,382.835,203.786,386.351,190.812z"/>
			<path style="fill:#A66F1F;" d="M336.758,177.778c0.019-0.639,1.018-0.688,0.999-0.044c-0.224,7.697,1.073,15.4,3.818,22.595
				c0.797,2.09,1.717,4.129,2.75,6.113c0.296,0.567-0.543,1.113-0.84,0.542c-3.637-6.978-5.877-14.645-6.545-22.488
				C336.751,182.262,336.693,180.019,336.758,177.778z"/>
			<path style="fill:#A66F1F;" d="M339.757,263.296c7.284,2.098,14.82,3.28,22.397,3.51c7.572,0.23,15.179-0.463,22.578-2.092
				c4.181-0.921,8.292-2.139,12.302-3.64c0.604-0.226,0.909,0.727,0.308,0.952c-7.147,2.675-14.624,4.438-22.21,5.269
				c-7.622,0.835-15.345,0.721-22.94-0.333c-4.278-0.594-8.509-1.495-12.659-2.69C338.918,264.094,339.136,263.117,339.757,263.296z
				"/>
			<g>
				<g>
					<g>
						<path style="fill:#FFAB91;" d="M360.952,443.769c-0.438,4.101-0.876,16.655-1.294,19.604h-8.163
							c-0.487-3.318-3.096-15.825-3.56-19.604H360.952z"/>
						<path style="fill:#FFFFFF;" d="M361.125,462.145l-10.679-0.294c-2.976,3.097-20.895,6.993-21.933,11.159h35.079
							C363.202,469.302,362.407,465.655,361.125,462.145z"/>
						<path style="fill:#508DBA;" d="M328.513,473.01c-0.099,0.399-0.202,0.797-0.281,1.201c-0.124,0.633,0.349,1.226,0.995,1.226
							h33.475c0.589,0,1.062-0.501,1.016-1.088c-0.035-0.447-0.079-0.893-0.126-1.339H328.513z"/>
					</g>
					<path style="fill:#386CA6;" d="M331.257,343.168c-2.747-26.639-3.649-60.605,3.729-86.255
						c17.446,1.596,22.669,3.543,38.926,3.333c1.42,9.173-4.262,28.752-4.262,28.752l-7.112,154.771H346.26
						C339.449,413.453,334.118,370.915,331.257,343.168z"/>
					<g>
						<path style="fill:#FFAB91;" d="M390.853,443.769c-0.438,4.101-2.914,16.655-3.332,19.604h-8.163
							c-0.485-3.303-0.958-15.811-1.419-19.604H390.853z"/>
						<path style="fill:#FFFFFF;" d="M377.844,462.145l10.679-0.294c2.976,3.097,7.895,6.993,8.933,11.159h-22.079
							C375.767,469.302,376.562,465.655,377.844,462.145z"/>
						<path style="fill:#508DBA;" d="M397.456,473.01c0.099,0.399,0.202,0.797,0.281,1.201c0.124,0.633-0.349,1.226-0.995,1.226
							h-20.475c-0.589,0-1.062-0.501-1.016-1.088c0.035-0.447,0.079-0.893,0.126-1.339H397.456z"/>
					</g>
					<path style="fill:#508DBA;" d="M368.967,288.998c0,0-19.558-16.528-20.86-30.609c16.257,0.21,33.923-1.839,49.419-7.639
						c14.16,21.189,12.581,65.779,9.834,92.418c-2.862,27.748-8.192,70.285-15.004,100.601h-16.278L368.967,288.998z"/>
				</g>
				<path style="fill:#386CA6;" d="M388.506,386.224c4.184-1.344,7.715-4.357,9.705-8.275c0.291-0.574,1.177-0.109,0.885,0.466
					c-2.103,4.142-5.859,7.34-10.281,8.76C388.201,387.373,387.893,386.421,388.506,386.224z"/>
			</g>
			<path style="fill:#386CA6;" d="M395.583,266.97c-5.533-0.625-10.803-2.814-15.174-6.258c-0.506-0.399-1.044,0.445-0.542,0.84
				c4.511,3.554,9.969,5.772,15.672,6.416C396.179,268.041,396.22,267.041,395.583,266.97z"/>
		</g>
		<g>
			<rect x="169.16" y="63.627" style="fill:#9FDADC;" width="50.876" height="47.609"/>
			<g>
				<path style="fill:none;stroke:#FFFFFF;stroke-width:2;stroke-miterlimit:10;" d="M192.313,84.688l3.022-6.685
					c0.28-0.62,0.898-1.018,1.578-1.018l0,0c0.956,0,1.732,0.775,1.732,1.732v5.971h3.58c2.529,0,4.439,2.293,3.981,4.781
					l-0.937,5.093c-0.354,1.921-2.028,3.316-3.981,3.316h-12.034V86.059L192.313,84.688z"/>
				
					<rect x="182.921" y="86.059" style="fill:none;stroke:#FFFFFF;stroke-width:2;stroke-miterlimit:10;" width="6.331" height="11.818"/>
			</g>
		</g>
		<g>
			<rect x="319.323" y="30.821" style="fill:#9FDADC;" width="50.876" height="47.609"/>
			<polygon style="fill:#FFFFFF;" points="344.761,44.174 348.157,51.055 355.75,52.158 350.255,57.514 351.553,65.077 
				344.761,61.506 337.969,65.077 339.266,57.514 333.772,52.158 341.365,51.055 			"/>
		</g>
	</g>
</g>
</svg>
